<svg xmlns="http://www.w3.org/2000/svg" viewBox="0 0 252.95674 64.39727"><path d="M95.80586,15.76443h2.35v7.82086c0,1.80456.11274,3.89142,3.15835,3.89142,3.04542,0,3.15835-2.08686,3.15835-3.89142V15.76443h2.35V24.356c0,3.44029-2.19978,5.15093-5.50833,5.15093-3.30873,0-5.50832-1.71064-5.50832-5.15093Z" transform="translate(-1.52163 -2.80137)" style="fill:#0065a5"/><polygon points="109.416 12.963 111.898 12.963 118.026 22.852 118.064 22.852 118.064 12.963 120.301 12.963 120.301 26.386 117.82 26.386 111.71 16.516 111.654 16.516 111.654 26.386 109.416 26.386 109.416 12.963" style="fill:#0065a5"/><rect x="124.58588" y="12.96312" width="2.34999" height="13.42292" style="fill:#0065a5"/><polygon points="129.774 12.963 132.218 12.963 135.583 23.585 135.621 23.585 139.061 12.963 141.449 12.963 136.862 26.386 134.248 26.386 129.774 12.963" style="fill:#0065a5"/><polygon points="144.286 12.963 153.949 12.963 153.949 14.993 146.636 14.993 146.636 18.509 153.404 18.509 153.404 20.427 146.636 20.427 146.636 24.356 154.081 24.356 154.081 26.386 144.286 26.386 144.286 12.963" style="fill:#0065a5"/><path d="M159.1541,15.76437h6.41061c2.93268,0,4.43667,1.354,4.43667,3.62867a3.25806,3.25806,0,0,1-2.21824,3.38382v.03782c.80853.11238,1.99258.71426,1.99258,2.8384,0,1.56045.22566,2.98951.73326,3.53439h-2.51919a3.74282,3.74282,0,0,1-.3574-1.97394c0-2.46273-.5076-3.553-2.66939-3.553h-3.45891v5.527h-2.35Zm2.35,6.11021h3.854c1.485,0,2.29352-.73344,2.29352-2.14314,0-1.71083-1.10948-2.049-2.33135-2.049h-3.81613Z" transform="translate(-1.52163 -2.80137)" style="fill:#0065a5"/><path d="M175.43328,24.71341c0,2.06769,1.5228,2.87623,3.40282,2.87623,2.06768,0,2.8384-1.0152,2.8384-2.0304a1.59486,1.59486,0,0,0-1.10894-1.65437c-.9401-.35722-2.162-.6017-4.00417-1.1093-2.29351-.62016-2.9705-2.01122-2.9705-3.40246,0-2.68857,2.48155-3.94825,4.90663-3.94825,2.80149,0,5.15129,1.48552,5.15129,4.28647H181.299c-.11292-1.72947-1.27887-2.36863-2.89542-2.36863-1.09029,0-2.46271.39468-2.46271,1.74811,0,.94009.63916,1.46634,1.59789,1.72945.20667.05647,3.177.82773,3.87261,1.03439a3.55259,3.55259,0,0,1,2.61347,3.42146c0,3.00779-2.66993,4.21083-5.3395,4.21083-3.06406,0-5.5456-1.46616-5.60206-4.79353Z" transform="translate(-1.52163 -2.80137)" style="fill:#0065a5"/><rect x="186.03635" y="12.96312" width="2.34998" height="13.42292" style="fill:#0065a5"/><polygon points="191.487 12.963 202.354 12.963 202.354 14.993 198.086 14.993 198.086 26.386 195.736 26.386 195.736 14.993 191.487 14.993 191.487 12.963" style="fill:#0065a5"/><polygon points="208.913 21.122 203.875 12.963 206.601 12.963 210.154 18.979 213.651 12.963 216.282 12.963 211.263 21.122 211.263 26.386 208.913 26.386 208.913 21.122" style="fill:#0065a5"/><path d="M239.47811,22.47593c0,3.83533-2.40646,7.03114-6.42926,7.03114-4.02335,0-6.42979-3.19581-6.42979-7.03114,0-3.835,2.40644-7.03112,6.42979-7.03112,4.0228,0,6.42926,3.19616,6.42926,7.03112m-10.509,0c0,2.57565,1.2032,5.11365,4.07979,5.11365,2.87623,0,4.07926-2.538,4.07926-5.11365,0-2.57528-1.203-5.1131-4.07926-5.1131-2.87659,0-4.07979,2.53782-4.07979,5.1131" transform="translate(-1.52163 -2.80137)" style="fill:#0065a5"/><polygon points="241.584 12.963 250.852 12.963 250.852 14.993 243.934 14.993 243.934 18.509 250.006 18.509 250.006 20.427 243.934 20.427 243.934 26.386 241.584 26.386 241.584 12.963" style="fill:#0065a5"/><polygon points="93.119 35.727 95.506 35.727 97.932 45.992 97.969 45.992 100.676 35.727 103.082 35.727 105.714 45.992 105.752 45.992 108.253 35.727 110.64 35.727 106.936 49.15 104.549 49.15 101.861 38.886 101.823 38.886 99.078 49.15 96.653 49.15 93.119 35.727" style="fill:#e12b28"/><polygon points="113.683 35.727 123.346 35.727 123.346 37.758 116.033 37.758 116.033 41.274 122.801 41.274 122.801 43.191 116.033 43.191 116.033 47.12 123.478 47.12 123.478 49.15 113.683 49.15 113.683 35.727" style="fill:#e12b28"/><path d="M130.093,47.47777c0,2.06768,1.5228,2.87622,3.40246,2.87622,2.068,0,2.83876-1.0152,2.83876-2.0304a1.59544,1.59544,0,0,0-1.10894-1.65437c-.9401-.35722-2.162-.6017-4.00471-1.1093-2.29333-.62016-2.97-2.01122-2.97-3.40246,0-2.68857,2.48155-3.94825,4.90663-3.94825,2.80094,0,5.15093,1.48553,5.15093,4.28647h-2.35c-.11237-1.72947-1.27831-2.36863-2.89486-2.36863-1.09066,0-2.46272.39468-2.46272,1.74811,0,.9401.63916,1.46634,1.5979,1.72946.20666.05646,3.177.82772,3.87261,1.03438a3.55224,3.55224,0,0,1,2.6131,3.42147c0,3.00778-2.66957,4.21082-5.33895,4.21082-3.06425,0-5.54615-1.46616-5.60225-4.79352Z" transform="translate(-1.52163 -2.80137)" style="fill:#e12b28"/><polygon points="139.417 35.727 150.284 35.727 150.284 37.758 146.016 37.758 146.016 49.15 143.666 49.15 143.666 37.758 139.417 37.758 139.417 35.727" style="fill:#e12b28"/><path d="M172.82161,51.95178h-1.50416l-.35722-1.57926a4.8387,4.8387,0,0,1-4.042,1.89884c-4.023,0-6.42925-3.1958-6.42925-7.03113,0-3.83478,2.40626-7.03095,6.42925-7.03095,2.93305,0,5.39576,1.56044,5.75263,4.58741h-2.29335a3.20323,3.20323,0,0,0-3.45928-2.66956c-2.87623,0-4.07945,2.538-4.07945,5.1131,0,2.57583,1.20322,5.11365,4.07945,5.11365a3.4117,3.4117,0,0,0,3.76-3.68458h-3.57221V44.88337h5.71554Z" transform="translate(-1.52163 -2.80137)" style="fill:#e12b28"/><polygon points="175.359 35.727 185.022 35.727 185.022 37.758 177.709 37.758 177.709 41.274 184.477 41.274 184.477 43.191 177.709 43.191 177.709 47.12 185.153 47.12 185.153 49.15 175.359 49.15 175.359 35.727" style="fill:#e12b28"/><path d="M202.37122,45.24029c0,3.83532-2.40646,7.03113-6.42926,7.03113-4.02335,0-6.42979-3.19581-6.42979-7.03113,0-3.835,2.40644-7.03113,6.42979-7.03113,4.0228,0,6.42926,3.19616,6.42926,7.03113m-10.50905,0c0,2.57564,1.20321,5.11365,4.07979,5.11365,2.87606,0,4.07926-2.538,4.07926-5.11365,0-2.57528-1.2032-5.11311-4.07926-5.11311-2.87658,0-4.07979,2.53783-4.07979,5.11311" transform="translate(-1.52163 -2.80137)" style="fill:#e12b28"/><path d="M206.01706,38.52872h6.41061c2.93268,0,4.43667,1.354,4.43667,3.62867a3.25806,3.25806,0,0,1-2.21824,3.38382V45.579c.80853.11238,1.99258.71426,1.99258,2.8384,0,1.56045.22566,2.98951.73327,3.53439h-2.51919a3.74282,3.74282,0,0,1-.3574-1.97394c0-2.46273-.50761-3.553-2.6694-3.553h-3.4589v5.527h-2.35Zm2.35,6.11021h3.854c1.485,0,2.29352-.73344,2.29352-2.14314,0-1.71083-1.10948-2.04905-2.33136-2.04905h-3.81612Z" transform="translate(-1.52163 -2.80137)" style="fill:#e12b28"/><path d="M232.448,51.95178h-1.50416l-.35722-1.57926a4.83873,4.83873,0,0,1-4.042,1.89884c-4.023,0-6.42942-3.1958-6.42942-7.03113,0-3.83478,2.40644-7.03095,6.42942-7.03095,2.93305,0,5.39577,1.56044,5.75264,4.58741h-2.29336a3.20322,3.20322,0,0,0-3.45928-2.66956c-2.87623,0-4.07944,2.538-4.07944,5.1131,0,2.57583,1.20321,5.11365,4.07944,5.11365a3.41169,3.41169,0,0,0,3.76-3.68458h-3.572V44.88337H232.448Z" transform="translate(-1.52163 -2.80137)" style="fill:#e12b28"/><rect x="234.98555" y="35.72735" width="2.34998" height="13.42292" style="fill:#e12b28"/><path d="M246.80826,38.52885h2.50054l5.16957,13.42292h-2.51863l-1.2597-3.553h-5.35813l-1.25967,3.553h-2.42491Zm-.82717,8.084h4.09844L248.068,40.84137h-.05646Z" transform="translate(-1.52163 -2.80137)" style="fill:#e12b28"/><rect x="77.31331" y="4.12888" width="1.26222" height="58.17378" style="fill:#4c5152"/><path d="M31.9232,64.89043S3.03574,59.87034,3.93874,27.83683H59.90785s2.70847,30.59938-27.98465,37.0536" transform="translate(-1.52163 -2.80137)" style="fill:#0065a5"/><path d="M8.07874,11.1503A45.10834,45.10834,0,0,0,31.989,5.42283c11.22694,6.54923,24.12127,5.89541,24.12127,5.89541a36.49594,36.49594,0,0,1,3.745,14.91423H4.0201c0-7.33623,4.05864-15.08217,4.05864-15.08217" transform="translate(-1.52163 -2.80137)" style="fill:#e12b28"/><path d="M31.92328,64.89045S3.03581,59.87036,3.93881,27.83685H59.90792s2.70829,30.59938-27.98464,37.0536M8.0787,11.15027A45.10808,45.10808,0,0,0,31.989,5.42279C43.21591,11.972,56.11023,11.3182,56.11023,11.3182a36.49487,36.49487,0,0,1,3.74521,14.91442H4.02007c0-7.33641,4.05863-15.08235,4.05863-15.08235M57.327,8.98468l-1.44572.06986c-.00307,0-.32211.0152-.89051.0152-2.90138,0-13.06009-.40355-21.97595-5.60515L31.877,2.80137l-1.14025.65979A43.30968,43.30968,0,0,1,9.81432,8.94053c-1.04976,0-1.658-.0485-1.66015-.0485L6.65362,8.76464a42.14089,42.14089,0,0,0-5.09754,19.008c-.63572,16.26694,7.65147,27.30658,14.57113,32.426A39.738,39.738,0,0,0,31.41893,67.1239l.42852.07473.42654-.09048C49.137,63.56237,56.50238,53.041,59.43307,44.73662A45.89125,45.89125,0,0,0,57.327,8.98468" transform="translate(-1.52163 -2.80137)" style="fill:#fff"/><path d="M7.68565,29.54112q1.82437.00814,3.65057.01521a76.9826,76.9826,0,0,0,.856,14.43287,2.73171,2.73171,0,0,0,2.13211,2.536c1.22837.28285,1.70213-.33279,1.5313-1.812a97.48232,97.48232,0,0,1-.63083-15.14405q1.82709.00569,3.65454.00886a129.56374,129.56374,0,0,0,.44427,15.52282c.29207,3.58559-1.38328,5.24068-4.50779,4.36337A8.45671,8.45671,0,0,1,8.783,43.03462a63.90446,63.90446,0,0,1-1.09736-13.4935" transform="translate(-1.52163 -2.80137)" style="fill:#fff"/><path d="M30.20006,29.59373q1.84718,0,3.69381-.0009c1.09211,6.437,2.12849,12.94934,2.85071,19.3395.02389-.00127.04687-.00308.0704-.00489,1.0494-6.5219,2.03963-13.02589,2.69145-19.3404q2.10018-.00408,4.19943-.00887c-1.167,9.63084-3.44155,19.88872-5.66486,30.0601q-1.62759.28529-3.25046.43305c-.60948-6.56751-1.59211-13.34077-2.68133-20.10136l-.0731.00036c-1.02353,6.77036-2.02353,13.57457-2.73562,20.1998q-1.62106-.08875-3.24521-.31759c-2.08541-10.20468-4.43865-20.54869-5.81343-30.27111q2.09963.00435,4.19924.00724c.80131,6.35252,1.8793,12.89,2.93613,19.43107l.06949.00254c.76511-6.441,1.77017-12.98029,2.75335-19.42854" transform="translate(-1.52163 -2.80137)" style="fill:#fff"/><path d="M49.21857,39.26379q2.91178-.35885,5.757-.84455a74.54782,74.54782,0,0,1-1.66577,9.17916q-.78175.28746-1.5722.55211-.14631-.59554-.31361-1.20883a6.86741,6.86741,0,0,1-3.663,2.65219c-2.59935.71246-4.14875-.989-3.86537-4.31343.32194-3.57021.5029-7.14875.51593-10.70395.01574-2.94228,1.66033-5.30837,5.253-5.283,3.65961.04379,5.61546,2.27181,5.47684,4.939q-.02524.576-.06243,1.15219-1.684.18675-3.39034.34419c.10966-2.85252-.58994-3.56117-2.01593-3.51593-.88527.03-1.59953.5476-1.61328,2.24069a96.18635,96.18635,0,0,1-.68838,10.31343c-.15237,1.28086.14133,2.03963,1.3156,1.77036,1.35848-.32066,1.99022-1.2,2.27217-3.10677q.133-.93132.245-1.86084-1.10532.20169-2.22313.37894.13978-1.34311.238-2.685" transform="translate(-1.52163 -2.80137)" style="fill:#fff"/><path d="M13.5279,22.8424a2.26618,2.26618,0,0,1-1.709.92762c-1.77615,0-3.02208-.84817-3.02208-3.20721V17.14334c0-2.35939,1.24593-3.20756,3.02208-3.20756,1.86808,0,2.8755,1.07346,2.94228,3.24665H12.9318c0-1.23236-.451-1.62993-1.11292-1.62993-.72946,0-1.19327.29171-1.19327,1.35161V20.801c0,1.06044.46381,1.35179,1.19327,1.35179.68911,0,1.11292-.50289,1.11292-1.325V20.2445H11.64588V18.73328h3.11528v4.90409H13.8064Z" transform="translate(-1.52163 -2.80137)" style="fill:#fff"/><path d="M17.46362,20.80113c0,1.06026.46417,1.35179,1.19291,1.35179.7291,0,1.19272-.29153,1.19272-1.35179v-3.897c0-1.0599-.46362-1.35161-1.19272-1.35161-.72874,0-1.19291.29171-1.19291,1.35161Zm-1.82845-3.65781c0-2.35939,1.24521-3.20774,3.02136-3.20774,1.776,0,3.02208.84835,3.02208,3.20774v3.4193c0,2.35921-1.24611,3.20738-3.02208,3.20738-1.77615,0-3.02136-.84817-3.02136-3.20738Z" transform="translate(-1.52163 -2.80137)" style="fill:#fff"/><polygon points="23.748 11.267 25.445 11.267 26.73 17.522 26.757 17.522 28.068 11.267 29.831 11.267 31.157 17.522 31.183 17.522 32.456 11.267 34.166 11.267 32.072 20.836 30.309 20.836 28.97 14.288 28.944 14.288 27.499 20.836 25.75 20.836 23.748 11.267" style="fill:#fff"/><polygon points="34.774 20.836 34.774 11.267 39.784 11.267 39.784 12.884 36.603 12.884 36.603 15.084 39.029 15.084 39.029 16.701 36.603 16.701 36.603 19.219 39.917 19.219 39.917 20.836 34.774 20.836" style="fill:#fff"/><path d="M46.43451,16.73219c-.3051-.90137-.7025-1.28592-1.33858-1.28592a.93853.93853,0,0,0-1.00724,1.04741c0,1.445,4.082,1.55049,4.082,4.54615,0,1.64314-1.12667,2.73019-3.04831,2.73019a3.1083,3.1083,0,0,1-3.12776-2.69038l1.8022-.38454c.21191,1.15291.875,1.5637,1.41875,1.5637a1.07415,1.07415,0,0,0,1.12577-1.13952c0-1.80293-4.08179-1.82936-4.08179-4.50707,0-1.643.98081-2.67643,2.87586-2.67643a2.84482,2.84482,0,0,1,2.94227,2.31939Z" transform="translate(-1.52163 -2.80137)" style="fill:#fff"/><polygon points="53.249 11.267 53.249 12.884 51.115 12.884 51.115 20.836 49.286 20.836 49.286 12.884 47.152 12.884 47.152 11.267 53.249 11.267" style="fill:#fff"/><polygon points="40.086 49.5 40.086 48.251 39.64 48.251 39.64 47.76 41.071 47.76 41.071 48.251 40.626 48.251 40.626 49.5 40.086 49.5" style="fill:#fff"/><path d="M42.273,52.42676h-.79053v-1.25h-.4458v-.74024h1.68115v.74024H42.273Zm-.54053-.25H42.023v-1.25h.44482v-.24024H41.28662v.24024h.4458Z" transform="translate(-1.52163 -2.80137)" style="fill:#0065a5"/><polygon points="42.197 49.5 42.197 49.151 42.109 49.5 41.632 49.5 41.545 49.154 41.545 49.5 41.026 49.5 41.026 47.76 41.69 47.76 41.872 48.442 42.051 47.76 42.716 47.76 42.716 49.5 42.197 49.5" style="fill:#fff"/><path d="M44.36279,52.42676H42.42285V50.43652h.88477l.085.31836.084-.31836h.88623Zm-.519-.25h.269V50.68652H43.669l-.27442,1.04493-.2793-1.04493h-.44238v1.49024h.269V50.94629l.30957,1.23047h.28174l.31055-1.23438Z" transform="translate(-1.52163 -2.80137)" style="fill:#0065a5"/></svg>